<svg xmlns="http://www.w3.org/2000/svg" xmlns:svg="http://www.w3.org/2000/svg" id="Layer_1" width="170.218" height="170.277" x="0" y="0" enable-background="new 0 0 648.371 170.775" version="1.1" viewBox="0 0 170.218 170.277" xml:space="preserve"><metadata id="metadata74"/><circle id="circle47_1_" cx="85.314" cy="85.713" r="83.805" fill="#fff" transform="translate(2.1317774e-4,-0.24996129)"/><path id="path49_1_" fill-opacity=".1" d="m 138.64421,100.70004 c 0,-29.454001 -23.877,-53.331001 -53.329997,-53.331001 -29.454,0 -53.331,23.877 -53.331,53.331001 h 15.237 c 0,-21.039001 17.055,-38.094001 38.093,-38.094001 21.037997,0 38.092997,17.055 38.092997,38.094001"/><circle id="circle51_1_" cx="89.123" cy="96.379" r="28.951" fill-opacity=".1" transform="translate(2.1317774e-4,-0.24996129)"/><linearGradient id="circle53_2_" x1="-175.667" x2="-175.667" y1="582.198" y2="581.436" gradientTransform="matrix(82,0,0,-82,14489.971,47794.699)" gradientUnits="userSpaceOnUse"><stop id="stop23" offset="0" stop-color="#81B4E0"/><stop id="stop25" offset="1" stop-color="#0C5A94"/></linearGradient><circle id="circle53_1_" cx="85.314" cy="85.712" r="31.236" fill="url(#circle53_2_)" transform="translate(2.1317774e-4,-0.24996129)"/><linearGradient id="path55_2_" x1="-114.519" x2="-114.519" y1="250.392" y2="181.062" gradientTransform="matrix(1,0,0,-1,202.50021,250.52594)" gradientUnits="userSpaceOnUse"><stop id="stop29" offset="0" stop-color="#F06B59"/><stop id="stop31" offset="1" stop-color="#DF2227"/></linearGradient><path id="path55_1_" fill="url(#path55_2_)" d="m 161.50021,47.369039 c -20.975,-42.2000003 -72.187997,-59.407 -114.388997,-38.4330003 -13.159,6.5400003 -24.405,16.3670003 -32.65,28.5300003 l 34.284,59.425 c -6.314,-20.068 4.837,-41.456 24.905,-47.769 3.529,-1.11 7.203,-1.701 10.902,-1.752"/><linearGradient id="path57_2_" x1="-181.738" x2="-146.693" y1="104.41" y2="162.311" gradientTransform="matrix(1,0,0,-1,202.50021,250.52594)" gradientUnits="userSpaceOnUse"><stop id="stop35" offset="0" stop-color="#388B41"/><stop id="stop37" offset="1" stop-color="#4CB749"/></linearGradient><path id="path57_1_" fill="url(#path57_2_)" d="m 14.461213,37.466039 c -26.241,39.144 -15.7809998,92.148001 23.363,118.389001 12.111,8.119 26.1,12.999 40.633,14.175 l 35.807997,-60.948 c -13.389,16.228 -37.396997,18.529 -53.624997,5.14 -5.512,-4.547 -9.634,-10.552 -11.895,-17.330001"/><linearGradient id="path59_2_" x1="-64.337" x2="-101.668" y1="98.252" y2="188.151" gradientTransform="matrix(1,0,0,-1,202.50021,250.52594)" gradientUnits="userSpaceOnUse"><stop id="stop41" offset="0" stop-color="#E4B022"/><stop id="stop43" offset=".3" stop-color="#FCD209"/></linearGradient><path id="path59_1_" fill="url(#path59_2_)" d="m 78.457213,170.03004 c 46.990997,3.552 87.964997,-31.662 91.517997,-78.653001 1.146,-15.162 -1.779,-30.354 -8.476,-44.007 H 84.552213 c 21.036997,0.097 38.013997,17.23 37.916997,38.268 -0.039,8.511 -2.928,16.766001 -8.205,23.444001"/><linearGradient id="path61_2_" x1="-170.136" x2="-170.136" y1="155.92" y2="216.868" gradientTransform="matrix(1,0,0,-1,202.50021,250.52594)" gradientUnits="userSpaceOnUse"><stop id="stop47" offset="0" stop-color="#000" stop-opacity=".15"/><stop id="stop49" offset=".3" stop-color="#000" stop-opacity=".06"/><stop id="stop51" offset="1" stop-color="#000" stop-opacity=".03"/></linearGradient><path id="path61_1_" fill="url(#path61_2_)" d="m 14.461213,37.466039 34.284,59.425 c -2.54,-8.547 -2,-17.714 1.523,-25.904 l -34.284,-35.807"/><linearGradient id="path63_2_" x1="-86.009" x2="-127.911" y1="136.238" y2="93.575" gradientTransform="matrix(1,0,0,-1,202.50021,250.52594)" gradientUnits="userSpaceOnUse"><stop id="stop55" offset="0" stop-color="#000" stop-opacity=".15"/><stop id="stop57" offset=".3" stop-color="#000" stop-opacity=".06"/><stop id="stop59" offset="1" stop-color="#000" stop-opacity=".03"/></linearGradient><path id="path63_1_" fill="url(#path63_2_)" d="m 78.457213,170.03004 35.807997,-60.948 c -5.65,6.737 -13.456,11.312 -22.093997,12.951 l -15.238,47.997"/><linearGradient id="path65_2_" x1="-86.616" x2="-80.521" y1="123.964" y2="184.148" gradientTransform="matrix(1,0,0,-1,202.50021,250.52594)" gradientUnits="userSpaceOnUse"><stop id="stop63" offset="0" stop-color="#000" stop-opacity=".15"/><stop id="stop65" offset=".3" stop-color="#000" stop-opacity=".06"/><stop id="stop67" offset="1" stop-color="#000" stop-opacity=".03"/></linearGradient><path id="path65_1_" fill="url(#path65_2_)" d="M 161.50021,47.369039 H 84.552213 c 11.59,0.054 22.525997,5.381 29.711997,14.476 l 48.759,-12.19"/></svg>